<svg id="visual" viewBox="0 0 900 600" width="900" height="600" xmlns="http://www.w3.org/2000/svg" xmlns:xlink="http://www.w3.org/1999/xlink" version="1.1"><rect x="0" y="0" width="900" height="600" fill="#001220"></rect><defs><linearGradient id="grad1_0" x1="33.3%" y1="0%" x2="100%" y2="100%"><stop offset="20%" stop-color="#001220" stop-opacity="1"></stop><stop offset="80%" stop-color="#001220" stop-opacity="1"></stop></linearGradient></defs><defs><linearGradient id="grad2_0" x1="0%" y1="0%" x2="66.7%" y2="100%"><stop offset="20%" stop-color="#001220" stop-opacity="1"></stop><stop offset="80%" stop-color="#001220" stop-opacity="1"></stop></linearGradient></defs><g transform="translate(900, 0)"><path d="M0 243.4C-15.3 225.9 -30.5 208.4 -45.6 199.9C-60.7 191.3 -75.7 191.6 -88.9 184.7C-102.2 177.8 -113.7 163.5 -119.1 149.3C-124.5 135.1 -123.9 120.9 -146.2 116.6C-168.5 112.3 -213.7 117.8 -219.3 105.6C-224.8 93.4 -190.8 63.5 -188.2 42.9C-185.6 22.4 -214.5 11.2 -243.4 0L0 0Z" fill="#1f2937"></path></g><g transform="translate(0, 600)"><path d="M0 -243.4C16.3 -233.8 32.5 -224.3 50.7 -222.3C68.9 -220.2 89 -225.7 105.6 -219.3C122.2 -212.9 135.2 -194.6 139 -174.3C142.8 -154.1 137.3 -131.9 153.2 -122.2C169.1 -112.5 206.4 -115.2 215.3 -103.7C224.2 -92.2 204.8 -66.4 204.7 -46.7C204.7 -27.1 224 -13.5 243.4 0L0 0Z" fill="#1f2937"></path></g></svg>