<svg id="visual" viewBox="0 0 900 600" width="900" height="600" xmlns="http://www.w3.org/2000/svg" xmlns:xlink="http://www.w3.org/1999/xlink" version="1.1"><path d="M0 283L64 283L64 193L129 193L129 331L193 331L193 235L257 235L257 187L321 187L321 151L386 151L386 193L450 193L450 295L514 295L514 295L579 295L579 151L643 151L643 151L707 151L707 343L771 343L771 157L836 157L836 217L900 217L900 121L900 0L900 0L836 0L836 0L771 0L771 0L707 0L707 0L643 0L643 0L579 0L579 0L514 0L514 0L450 0L450 0L386 0L386 0L321 0L321 0L257 0L257 0L193 0L193 0L129 0L129 0L64 0L64 0L0 0Z" fill="#101827"></path><path d="M0 517L64 517L64 463L129 463L129 445L193 445L193 391L257 391L257 469L321 469L321 469L386 469L386 487L450 487L450 457L514 457L514 463L579 463L579 517L643 517L643 439L707 439L707 469L771 469L771 427L836 427L836 445L900 445L900 445L900 119L900 215L836 215L836 155L771 155L771 341L707 341L707 149L643 149L643 149L579 149L579 293L514 293L514 293L450 293L450 191L386 191L386 149L321 149L321 185L257 185L257 233L193 233L193 329L129 329L129 191L64 191L64 281L0 281Z" fill="#18202f"></path><path d="M0 601L64 601L64 601L129 601L129 601L193 601L193 601L257 601L257 601L321 601L321 601L386 601L386 601L450 601L450 601L514 601L514 601L579 601L579 601L643 601L643 601L707 601L707 601L771 601L771 601L836 601L836 601L900 601L900 601L900 443L900 443L836 443L836 425L771 425L771 467L707 467L707 437L643 437L643 515L579 515L579 461L514 461L514 455L450 455L450 485L386 485L386 467L321 467L321 467L257 467L257 389L193 389L193 443L129 443L129 461L64 461L64 515L0 515Z" fill="#202937"></path></svg>